<!DOCTYPE svg PUBLIC "-//W3C//DTD SVG 1.1//EN" "http://www.w3.org/Graphics/SVG/1.1/DTD/svg11.dtd">
<!-- Uploaded to: SVG Repo, www.svgrepo.com, Transformed by: SVG Repo Mixer Tools -->
<svg fill="#006eff" width="800px" height="800px" viewBox="0 0 56 56" xmlns="http://www.w3.org/2000/svg" stroke="#006eff">
<g id="SVGRepo_bgCarrier" stroke-width="0"/>
<g id="SVGRepo_tracerCarrier" stroke-linecap="round" stroke-linejoin="round"/>
<g id="SVGRepo_iconCarrier">
<path d="M 13.0117 40.0117 C 12.2148 40.8086 12.1914 42.1680 13.0117 42.9883 C 13.8086 43.8086 15.1680 43.7851 15.9883 42.9883 L 27.9883 30.9648 L 40.0117 42.9883 C 40.8086 43.7851 42.1680 43.8086 42.9648 42.9883 C 43.8086 42.1680 43.7851 40.8086 42.9648 40.0117 L 30.9648 27.9883 L 42.9648 15.9883 C 43.7851 15.1914 43.8086 13.8086 42.9648 13.0117 C 42.1680 12.1914 40.8086 12.2148 40.0117 13.0117 L 27.9883 25.0352 L 15.9883 13.0117 C 15.1680 12.2148 13.8086 12.1914 13.0117 13.0117 C 12.1914 13.8086 12.2148 15.1914 13.0117 15.9883 L 25.0117 27.9883 Z"/>
</g>
</svg>